<svg width="32" height="33" viewBox="0 0 32 33" fill="none" xmlns="http://www.w3.org/2000/svg">
<path fill-rule="evenodd" clip-rule="evenodd" d="M9.99995 8.5C9.99995 5.18629 12.6862 2.5 16 2.5C19.3137 2.5 22 5.18629 22 8.5C22 11.8137 19.3137 14.5 16 14.5C12.6862 14.5 9.99995 11.8137 9.99995 8.5Z" fill="#343336"/>
<path fill-rule="evenodd" clip-rule="evenodd" d="M5.00161 27.3071C5.10473 21.3208 9.98927 16.5 16 16.5C22.0108 16.5 26.8954 21.321 26.9983 27.3075C27.0051 27.7046 26.7764 28.068 26.4155 28.2336C23.2436 29.6891 19.7153 30.5 16.0004 30.5C12.2851 30.5 8.75653 29.6889 5.58438 28.2332C5.22349 28.0676 4.99477 27.7041 5.00161 27.3071Z" fill="#343336"/>
</svg>
